HIERARCHY
ROOT hip
{
  OFFSET 0 0 0
  CHANNELS 6 Xposition Yposition Zposition Zrotation Yrotation Xrotation
  JOINT abdomen
  {
    OFFSET 0 20.6881 -0.73152
    CHANNELS 3 Zrotation Xrotation Yrotation
    JOINT chest
    {
      OFFSET 0 11.7043 -0.48768
      CHANNELS 3 Zrotation Xrotation Yrotation
      JOINT neck
      {
        OFFSET 0 22.1894 -2.19456
        CHANNELS 3 Zrotation Xrotation Yrotation
        JOINT head
        {
          OFFSET -0.24384 7.07133 1.2192
          CHANNELS 3 Zrotation Xrotation Yrotation
          JOINT leftEye
          {
            OFFSET 4.14528 8.04674 8.04672
            CHANNELS 3 Zrotation Xrotation Yrotation
            End Site
            {
              OFFSET 1 0 0
            }
          }
          JOINT rightEye
          {
            OFFSET -3.6576 8.04674 8.04672
            CHANNELS 3 Zrotation Xrotation Yrotation
            End Site
            {
              OFFSET 1 0 0
            }
          }
        }
      }
      JOINT rCollar
      {
        OFFSET -2.68224 19.2634 -4.8768
        CHANNELS 3 Zrotation Xrotation Yrotation
        JOINT rShldr
        {
          OFFSET -8.77824 -1.95073 1.46304
          CHANNELS 3 Zrotation Xrotation Yrotation
          JOINT rForeArm
          {
            OFFSET -28.1742 -1.7115 0.48768
            CHANNELS 3 Zrotation Xrotation Yrotation
            JOINT rHand
            {
              OFFSET -22.5879 0.773209 7.07136
              CHANNELS 3 Zrotation Xrotation Yrotation
              JOINT rThumb1
              {
                OFFSET -1.2192 -0.487915 3.41376
                CHANNELS 3 Zrotation Xrotation Yrotation
                JOINT rThumb2
                {
                  OFFSET -3.37035 -0.52449 3.41376
                  CHANNELS 3 Zrotation Xrotation Yrotation
                  End Site
                  {
                    OFFSET -1.78271 -1.18214 1.43049
                  }
                }
              }
              JOINT rIndex1
              {
                OFFSET -7.75947 0.938293 5.60832
                CHANNELS 3 Zrotation Xrotation Yrotation
                JOINT rIndex2
                {
                  OFFSET -2.54057 -0.884171 1.56538
                  CHANNELS 3 Zrotation Xrotation Yrotation
                  End Site
                  {
                    OFFSET -1.62519 -0.234802 1.16502
                  }
                }
              }
              JOINT rMid1
              {
                OFFSET -8.24714 1.18213 3.41376
                CHANNELS 3 Zrotation Xrotation Yrotation
                JOINT rMid2
                {
                  OFFSET -3.10165 -0.590103 1.0647
                  CHANNELS 3 Zrotation Xrotation Yrotation
                  End Site
                  {
                    OFFSET -2.48547 -0.328903 0.83742
                  }
                }
              }
              JOINT rRing1
              {
                OFFSET -8.82822 0.546677 1.51678
                CHANNELS 3 Zrotation Xrotation Yrotation
                JOINT rRing2
                {
                  OFFSET -2.60934 -0.819778 -0.0198488
                  CHANNELS 3 Zrotation Xrotation Yrotation
                  End Site
                  {
                    OFFSET -2.33842 -0.294052 0.168128
                  }
                }
              }
              JOINT rPinky1
              {
                OFFSET -8.27202 -0.0477905 -0.4584
                CHANNELS 3 Zrotation Xrotation Yrotation
                JOINT rPinky2
                {
                  OFFSET -1.82734 -0.647385 -0.700984
                  CHANNELS 3 Zrotation Xrotation Yrotation
                  End Site
                  {
                    OFFSET -1.69225 -0.51767 -0.607171
                  }
                }
              }
            }
          }
        }
      }
      JOINT lCollar
      {
        OFFSET 2.68224 19.2634 -4.8768
        CHANNELS 3 Zrotation Xrotation Yrotation
        JOINT lShldr
        {
          OFFSET 8.77824 -1.95073 1.46304
          CHANNELS 3 Zrotation Xrotation Yrotation
          JOINT lForeArm
          {
            OFFSET 28.1742 -1.7115 0.48768
            CHANNELS 3 Zrotation Xrotation Yrotation
            JOINT lHand
            {
              OFFSET 22.5879 0.773209 7.07136
              CHANNELS 3 Zrotation Xrotation Yrotation
              JOINT lThumb1
              {
                OFFSET 1.2192 -0.487915 3.41376
                CHANNELS 3 Zrotation Xrotation Yrotation
                JOINT lThumb2
                {
                  OFFSET 3.37035 -0.52449 3.41376
                  CHANNELS 3 Zrotation Xrotation Yrotation
                  End Site
                  {
                    OFFSET 1.78271 -1.18214 1.43049
                  }
                }
              }
              JOINT lIndex1
              {
                OFFSET 7.75947 0.938293 5.60832
                CHANNELS 3 Zrotation Xrotation Yrotation
                JOINT lIndex2
                {
                  OFFSET 2.54057 -0.884171 1.56538
                  CHANNELS 3 Zrotation Xrotation Yrotation
                  End Site
                  {
                    OFFSET 1.62519 -0.234802 1.16502
                  }
                }
              }
              JOINT lMid1
              {
                OFFSET 8.24714 1.18213 3.41376
                CHANNELS 3 Zrotation Xrotation Yrotation
                JOINT lMid2
                {
                  OFFSET 3.10165 -0.590103 1.0647
                  CHANNELS 3 Zrotation Xrotation Yrotation
                  End Site
                  {
                    OFFSET 2.48547 -0.328903 0.83742
                  }
                }
              }
              JOINT lRing1
              {
                OFFSET 8.82822 0.546677 1.51678
                CHANNELS 3 Zrotation Xrotation Yrotation
                JOINT lRing2
                {
                  OFFSET 2.60934 -0.819778 -0.0198488
                  CHANNELS 3 Zrotation Xrotation Yrotation
                  End Site
                  {
                    OFFSET 2.33842 -0.294052 0.168128
                  }
                }
              }
              JOINT lPinky1
              {
                OFFSET 8.27202 -0.0477905 -0.4584
                CHANNELS 3 Zrotation Xrotation Yrotation
                JOINT lPinky2
                {
                  OFFSET 1.82734 -0.647385 -0.700984
                  CHANNELS 3 Zrotation Xrotation Yrotation
                  End Site
                  {
                    OFFSET 1.69225 -0.51767 -0.607171
                  }
                }
              }
            }
          }
        }
      }
    }
  }
  JOINT rButtock
  {
    OFFSET -8.77824 4.35084 1.2192
    CHANNELS 3 Zrotation Xrotation Yrotation
    JOINT rThigh
    {
      OFFSET 0 -1.70687 -2.19456
      CHANNELS 3 Zrotation Xrotation Yrotation
      JOINT rShin
      {
        OFFSET 0 -36.8199 0.73152
        CHANNELS 3 Zrotation Xrotation Yrotation
        JOINT rFoot
        {
          OFFSET 0.73152 -45.1104 -5.12064
          CHANNELS 3 Zrotation Xrotation Yrotation
          End Site
          {
            OFFSET -1.1221 -3.69964 12.103
          }
        }
      }
    }
  }
  JOINT lButtock
  {
    OFFSET 8.77824 4.35084 1.2192
    CHANNELS 3 Zrotation Xrotation Yrotation
    JOINT lThigh
    {
      OFFSET 0 -1.70687 -2.19456
      CHANNELS 3 Zrotation Xrotation Yrotation
      JOINT lShin
      {
        OFFSET 0 -36.8199 0.73152
        CHANNELS 3 Zrotation Xrotation Yrotation
        JOINT lFoot
        {
          OFFSET -0.73152 -45.1104 -5.12064
          CHANNELS 3 Zrotation Xrotation Yrotation
          End Site
          {
            OFFSET 1.1221 -3.69964 12.103
          }
        }
      }
    }
  }
}
MOTION
Frames:	6
Frame Time:	0.00833333
46.29 84.6944 -85.728 -180.832 -14.5841 -167.055 -1.03255 7.08418 12.4295 -7.29933 2.35881 3.51682 -2.96447 19.9704 22.1513 1.27772 -34.2918 44.438 -0.0 0.0 0.0 -0.0 0.0 0.0 8.47965e-15 1.32231e-14 -3.7269e-14 71.91 40.9865 -5.46885 -19.0827 -11.9 36.4974 -0.0108079 -3.05849 -0.430217 -6.41965e-11 1.75179e-10 -1.71703e-10 -1.11189e-10 3.03168e-10 -2.96129e-10 -6.41922e-11 1.75183e-10 -1.71711e-10 7.73091 5.47488 0.417314 -6.41983e-11 1.75183e-10 -1.71705e-10 2.90554 0.965183 0.102902 -6.41865e-11 1.75182e-10 -1.71702e-10 10.2786 0.731801 0.0259123 -6.4194e-11 1.75184e-10 -1.71701e-10 2.22167 -0.733487 -0.20892 8.41764e-15 1.3215e-14 -3.74709e-14 -46.0347 60.7151 -27.9563 26.0855 -23.6558 -57.106 0.228824 -13.4998 1.93354 -4.02178e-10 -1.1754e-09 1.2189e-09 -7.08932e-10 -2.06971e-09 2.10763e-09 -4.02194e-10 -1.17542e-09 1.21891e-09 -7.73091 5.47488 -0.417314 -4.02183e-10 -1.17541e-09 1.2189e-09 -2.90554 0.965183 -0.102902 -4.02189e-10 -1.17542e-09 1.21889e-09 -10.2786 0.731801 -0.0259123 -4.02176e-10 -1.17541e-09 1.21889e-09 -2.22167 -0.733487 0.20892 -2.03217e-16 0.0 -3.88251e-19 -9.2938 -37.1118 -18.3478 -0.868506 55.8916 1.12827 1.13037 21.6246 -5.56184 2.03217e-16 0.0 3.88251e-19 1.39242 -26.227 14.6442 0.0275007 14.1013 -0.324802 9.82021 23.2554 -26.0802
46.0949 84.7932 -85.313 -181.308 -15.2186 -167.329 -1.47155 7.1312 12.2927 -7.24763 2.54661 3.46759 -3.05571 19.9908 22.172 1.57437 -34.3017 44.5641 -0.0 0.0 0.0 -0.0 0.0 0.0 5.01548e-14 -2.40709e-13 1.19389e-13 72.5926 40.6856 -6.35374 -19.0726 -11.8882 36.4735 -0.00785265 -2.60056 -0.365715 -1.27138e-09 1.85238e-09 -5.37422e-10 -2.1951e-09 3.20284e-09 -9.30178e-10 -1.27137e-09 1.85238e-09 -5.37435e-10 7.73091 5.47488 0.417314 -1.27138e-09 1.85238e-09 -5.37429e-10 2.90554 0.965183 0.102902 -1.27137e-09 1.85238e-09 -5.37426e-10 10.2786 0.731801 0.0259123 -1.27137e-09 1.85238e-09 -5.37429e-10 2.22167 -0.733487 -0.20892 5.00431e-14 -2.40724e-13 1.19221e-13 -45.7447 60.4416 -28.8227 25.9455 -23.2956 -56.5314 0.22485 -13.3844 1.91638 -7.61387e-10 -1.37987e-09 2.65811e-09 -1.3476e-09 -2.47224e-09 4.58998e-09 -7.61401e-10 -1.37988e-09 2.65812e-09 -7.73091 5.47488 -0.417314 -7.6139e-10 -1.37988e-09 2.6581e-09 -2.90554 0.965183 -0.102902 -7.61394e-10 -1.37988e-09 2.6581e-09 -10.2786 0.731801 -0.0259123 -7.61384e-10 -1.37988e-09 2.65809e-09 -2.22167 -0.733487 0.20892 -2.03217e-16 0.0 -3.88251e-19 -10.0845 -37.2525 -18.8255 -0.885914 56.2452 1.14859 1.15252 21.4645 -5.70128 2.03217e-16 0.0 3.88251e-19 1.24758 -25.3163 16.0243 0.0239857 13.9592 -0.352667 11.0731 25.2079 -26.9886
45.948 84.8327 -84.7913 -181.622 -15.6581 -167.462 -1.79694 7.17005 12.1949 -7.25739 2.69766 3.43409 -3.15505 20.0139 22.1989 1.84863 -34.3248 44.6961 -0.0 0.0 0.0 -0.0 0.0 0.0 7.80211e-14 -3.99151e-13 2.16327e-13 73.281 40.2978 -7.24155 -19.0636 -11.8778 36.4525 -0.00627426 -2.26107 -0.317939 -2.01327e-09 2.85531e-09 -7.35971e-10 -3.47574e-09 4.93645e-09 -1.27438e-09 -2.01327e-09 2.85532e-09 -7.35987e-10 7.73091 5.47488 0.417314 -2.01327e-09 2.85531e-09 -7.3598e-10 2.90554 0.965183 0.102902 -2.01326e-09 2.85531e-09 -7.35978e-10 10.2786 0.731801 0.0259123 -2.01327e-09 2.85531e-09 -7.35984e-10 2.22167 -0.733487 -0.20892 7.7881e-14 -3.99169e-13 2.16178e-13 -45.4416 60.2177 -29.6485 25.8101 -22.9568 -55.9921 0.221966 -13.2994 1.90376 -9.63926e-10 -1.4286e-09 3.49007e-09 -1.70797e-09 -2.58458e-09 6.02462e-09 -9.63939e-10 -1.42861e-09 3.49008e-09 -7.73091 5.47488 -0.417314 -9.63928e-10 -1.42861e-09 3.49007e-09 -2.90554 0.965183 -0.102902 -9.63931e-10 -1.42861e-09 3.49007e-09 -10.2786 0.731801 -0.0259123 -9.63923e-10 -1.42861e-09 3.49005e-09 -2.22167 -0.733487 0.20892 -2.03217e-16 0.0 -3.88251e-19 -10.7139 -37.4884 -19.1533 -0.901977 56.5479 1.1633 1.17735 21.3747 -5.82875 2.03217e-16 0.0 3.88251e-19 0.96762 -24.5142 16.3428 0.0221738 13.9156 -0.368102 11.6107 25.9831 -27.408
46.4515 84.6253 -83.687 -181.171 -14.7879 -167.112 -1.96322 7.19361 12.1576 -7.35624 2.81789 3.42554 -3.2691 20.0401 22.2331 2.10281 -34.386 44.8406 -0.0 0.0 0.0 -0.0 0.0 0.0 9.09773e-14 -4.34933e-13 2.32207e-13 73.959 39.8047 -8.1177 -19.0552 -11.868 36.4329 -0.00544025 -2.05276 -0.288634 -2.14345e-09 2.94334e-09 -6.895e-10 -3.70024e-09 5.0875e-09 -1.19368e-09 -2.14345e-09 2.94334e-09 -6.89514e-10 7.73091 5.47488 0.417314 -2.14345e-09 2.94334e-09 -6.89509e-10 2.90554 0.965183 0.102902 -2.14344e-09 2.94334e-09 -6.89507e-10 10.2786 0.731801 0.0259123 -2.14345e-09 2.94334e-09 -6.89513e-10 2.22167 -0.733487 -0.20892 9.08391e-14 -4.3495e-13 2.32056e-13 -45.0912 60.0409 -30.4658 25.6809 -22.6421 -55.4803 0.220309 -13.2502 1.89648 -9.54872e-10 -1.26095e-09 3.54354e-09 -1.69291e-09 -2.29546e-09 6.1162e-09 -9.54884e-10 -1.26095e-09 3.54356e-09 -7.73091 5.47488 -0.417314 -9.54873e-10 -1.26095e-09 3.54355e-09 -2.90554 0.965183 -0.102902 -9.54878e-10 -1.26095e-09 3.54354e-09 -10.2786 0.731801 -0.0259123 -9.5487e-10 -1.26096e-09 3.54353e-09 -2.22167 -0.733487 0.20892 -2.03217e-16 0.0 -3.88251e-19 -11.1094 -37.8635 -19.265 -0.916089 56.7855 1.16975 1.20564 21.3962 -5.93091 2.03217e-16 0.0 3.88251e-19 0.582232 -23.8545 15.1947 0.0229538 14.0166 -0.365735 11.0557 25.0588 -27.1113
45.8078 84.7704 -83.6005 -181.92 -16.354 -167.638 -2.02164 7.19639 12.1615 -7.51425 2.92639 3.43432 -3.39681 20.0679 22.2698 2.36364 -34.4714 44.995 -0.0 0.0 0.0 -0.0 0.0 0.0 9.71848e-14 -4.06906e-13 2.05807e-13 74.6468 39.1985 -8.99133 -19.0436 -11.8545 36.4057 -0.00485222 -1.92 -0.269956 -1.93193e-09 2.49176e-09 -4.8423e-10 -3.33477e-09 4.3049e-09 -8.37603e-10 -1.93193e-09 2.49177e-09 -4.84242e-10 7.73091 5.47488 0.417314 -1.93193e-09 2.49177e-09 -4.84237e-10 2.90554 0.965183 0.102902 -1.93192e-09 2.49177e-09 -4.84237e-10 10.2786 0.731801 0.0259123 -1.93193e-09 2.49177e-09 -4.84241e-10 2.22167 -0.733487 -0.20892 9.70653e-14 -4.06919e-13 2.05643e-13 -44.682 59.9039 -31.2929 25.5512 -22.3336 -54.9729 0.219364 -13.2224 1.89234 -8.02995e-10 -9.08489e-10 3.09718e-09 -1.42477e-09 -1.66931e-09 5.34515e-09 -8.03006e-10 -9.08493e-10 3.0972e-09 -7.73091 5.47488 -0.417314 -8.02995e-10 -9.08494e-10 3.09718e-09 -2.90554 0.965183 -0.102902 -8.03003e-10 -9.08495e-10 3.09718e-09 -10.2786 0.731801 -0.0259123 -8.02993e-10 -9.08496e-10 3.09717e-09 -2.22167 -0.733487 0.20892 -2.03217e-16 0.0 -3.88251e-19 -11.3246 -38.299 -19.214 -0.927436 56.9549 1.1702 1.22694 21.4575 -5.99535 2.03217e-16 0.0 3.88251e-19 0.185386 -23.2409 13.1129 0.0251958 14.1914 -0.351849 9.86871 23.1126 -26.3808
45.8155 84.7637 -82.8609 -182.149 -16.4574 -167.552 -2.03644 7.19854 12.173 -7.69228 2.99547 3.44535 -3.52416 20.0973 22.3098 2.60631 -34.535 45.1464 -0.0 0.0 0.0 -0.0 0.0 0.0 9.30007e-14 -3.32067e-13 1.56055e-13 75.3446 38.5278 -9.87647 -19.033 -11.8421 36.381 -0.00452987 -1.87586 -0.26374 -1.50567e-09 1.76056e-09 -2.30658e-10 -2.59865e-09 3.03912e-09 -3.97891e-10 -1.50567e-09 1.76057e-09 -2.30665e-10 7.73091 5.47488 0.417314 -1.50567e-09 1.76056e-09 -2.30662e-10 2.90554 0.965183 0.102902 -1.50566e-09 1.76056e-09 -2.30663e-10 10.2786 0.731801 0.0259123 -1.50567e-09 1.76056e-09 -2.30664e-10 2.22167 -0.733487 -0.20892 9.29064e-14 -3.32073e-13 1.55872e-13 -44.2809 59.8185 -32.0602 25.4271 -22.045 -54.5004 0.219091 -13.2146 1.89118 -5.80297e-10 -4.83991e-10 2.32731e-09 -1.03028e-09 -9.0817e-10 4.01573e-09 -5.80306e-10 -4.83993e-10 2.32734e-09 -7.73091 5.47488 -0.417314 -5.80296e-10 -4.83994e-10 2.32731e-09 -2.90554 0.965183 -0.102902 -5.80306e-10 -4.83996e-10 2.32731e-09 -10.2786 0.731801 -0.0259123 -5.80294e-10 -4.83995e-10 2.3273e-09 -2.22167 -0.733487 0.20892 -2.03217e-16 0.0 -3.88251e-19 -11.4765 -38.7598 -19.1079 -0.937229 57.0904 1.16822 1.24903 21.5198 -6.06197 2.03217e-16 0.0 3.88251e-19 -0.192062 -22.6143 10.6738 0.0278773 14.3893 -0.333852 8.51291 20.8281 -25.4842
